# xmcd CD database file
#
# Track frame offsets:
#	150
#	14419
#	29788
#	44283
#	57980
#	71832
#	86723
#	99689
#	112506
#	124896
#	140316
#	153652
#	168000
#	182178
#	196892
#	210389
#	225176
#	240037
#	254686
#	269514
#
# Disc length: 3782 seconds
#
# Revision: 1
# Processed by: cddbd v1.5.2PL0 Copyright (c) Steve Scherf et al.
# Submitted via: CDex 1.70beta2
#
DISCID=110ec414
DTITLE=Vian - L'écume du jazz
DYEAR=2013
DGENRE=Jazz
TTITLE0=Black bottom stomp (JR Morton)
TTITLE1=Chloe, Song from swamp (D Ellington)
TTITLE2=S tu vois ma mère (S Bechet)
TTITLE3=Get together (C Webb)
TTITLE4=The man I love (B Holiday)
TTITLE5=Black tan fantasy (D Ellington)
TTITLE6=Mahogany hall stomp (L Armstrong)
TTITLE7=I know that you know (J Noone)
TTITLE8=Slap happy (D Ellington)
TTITLE9=Careless love (B Smith)
TTITLE10=The mood to be wooed (D Ellington)
TTITLE11=I m coming Virginia (B Beiderbecke)
TTITLE12=Apex blues (J Noone)
TTITLE13=West end blues (L Armstrong)
TTITLE14=Honky tonk train blues (ML Lewis)
TTITLE15=Loveless love (B Holiday)
TTITLE16=Misty mornin' (D Ellington)
TTITLE17=Blues of the vagabond (D Ellington)
TTITLE18=Tight like this (L Armstrong)
TTITLE19=Blue bubbles (D Ellington)
EXTD=YEAR: 2013
EXTT0=
EXTT1=
EXTT2=
EXTT3=
EXTT4=
EXTT5=
EXTT6=
EXTT7=
EXTT8=
EXTT9=
EXTT10=
EXTT11=
EXTT12=
EXTT13=
EXTT14=
EXTT15=
EXTT16=
EXTT17=
EXTT18=
EXTT19=
PLAYORDER=
